<svg id="Layer_1" data-name="Layer 1" xmlns="http://www.w3.org/2000/svg" viewBox="0 0 444.82 387.57"><defs><style>.cls-1{fill:#333;}</style></defs><title>Portfolio_1</title><path class="cls-1" d="M518.46,479.78c0,4-4.5,7.28-10,7.28h-417c-5.5,0-10-3.28-10-7.28s4.5-7.28,10-7.28h417C514,472.5,518.46,475.77,518.46,479.78Z" transform="translate(-78.38 -99.49)"/><path class="cls-1" d="M299.92,101.4c3.47,2,4.06,7.54,1.31,12.3L92.72,474.84c-2.75,4.76-7.84,7-11.31,5s-4.06-7.54-1.31-12.3l208.5-361.14C291.36,101.65,296.45,99.4,299.92,101.4Z" transform="translate(-78.38 -99.49)"/><path class="cls-1" d="M478.1,288.75c1.76,3.64-.86,8.58-5.81,11L93.75,482.34c-5,2.39-10.45,1.36-12.2-2.28s.86-8.58,5.81-11L465.9,286.47C470.85,284.08,476.34,285.11,478.1,288.75Z" transform="translate(-78.38 -99.49)"/><path class="cls-1" d="M300,101.41c-3.47,2-4.06,7.54-1.31,12.3l208.5,361.14c2.75,4.76,7.84,7,11.31,5s4.06-7.54,1.31-12.3L311.27,106.43C308.52,101.67,303.43,99.41,300,101.41Z" transform="translate(-78.38 -99.49)"/><path class="cls-1" d="M299.84,101.51c-2.95,2.71-2.31,8.24,1.42,12.29L464.94,291.57c3.73,4,9.18,5.14,12.13,2.42s2.31-8.24-1.42-12.29L312,103.94C308.25,99.89,302.79,98.8,299.84,101.51Z" transform="translate(-78.38 -99.49)"/><path class="cls-1" d="M474.09,290.65c-3.9.91-6.08,6-4.83,11.39l39.41,169.82c1.24,5.36,5.45,9,9.36,8.09s6.08-6,4.83-11.39L483.44,298.75C482.2,293.39,478,289.75,474.09,290.65Z" transform="translate(-78.38 -99.49)"/><path class="cls-1" d="M505.31,487s21.87.19,16.63-22.38" transform="translate(-78.38 -99.49)"/><path class="cls-1" d="M81.79,464.65s-12,22.41,12.53,22.41" transform="translate(-78.38 -99.49)"/><path class="cls-1" d="M473.68,279.56a65.29,65.29,0,0,1,10.7,23.23L472.45,297V279.56" transform="translate(-78.38 -99.49)"/><path class="cls-1" d="M286.82,109.53s11.48-20.44,27.57-3" transform="translate(-78.38 -99.49)"/></svg>